<?xml version="1.0" standalone="no"?>
<!DOCTYPE svg PUBLIC "-//W3C//DTD SVG 20010904//EN"
 "http://www.w3.org/TR/2001/REC-SVG-20010904/DTD/svg10.dtd">
<svg version="1.0" xmlns="http://www.w3.org/2000/svg"
 width="414.000000pt" height="414.000000pt" viewBox="0 0 414.000000 414.000000"
 preserveAspectRatio="xMidYMid meet">
<metadata>
Created by potrace 1.14, written by Peter Selinger 2001-2017
</metadata>
<g transform="translate(0.000000,414.000000) scale(0.100000,-0.100000)"
fill="#000000" stroke="none">
<path d="M804 3377 c-52 -8 -104 -43 -117 -79 -4 -10 -11 -18 -17 -18 -6 0 -8
-5 -5 -10 7 -12 -34 -90 -47 -90 -5 0 -7 -4 -4 -9 3 -5 -1 -12 -10 -15 -9 -3
-14 -12 -11 -19 2 -6 -9 -24 -24 -39 -16 -16 -26 -28 -24 -28 3 0 1 -8 -4 -19
-8 -14 -6 -22 8 -35 16 -15 48 -123 41 -142 -1 -4 5 -11 14 -16 9 -5 14 -13
11 -18 -3 -5 6 -16 19 -25 24 -16 76 -106 76 -132 0 -7 4 -13 10 -13 5 0 13
-12 16 -27 10 -42 24 -56 40 -42 9 8 14 8 14 1 0 -6 16 -16 34 -23 19 -7 33
-16 30 -21 -3 -4 2 -8 11 -8 27 0 65 -53 65 -90 0 -11 5 -20 10 -20 6 0 10 -6
10 -14 0 -8 16 -27 36 -42 66 -53 76 -63 69 -73 -3 -6 -2 -11 3 -11 5 0 9 -6
10 -12 4 -49 26 -83 63 -102 18 -9 39 -16 47 -16 10 0 6 -9 -13 -26 -23 -21
-27 -33 -27 -72 3 -130 3 -127 -15 -172 -6 -14 -7 -26 -2 -28 5 -2 7 -7 4 -12
-3 -4 2 -13 10 -20 8 -7 15 -19 15 -26 0 -8 4 -14 9 -14 10 0 9 -11 -4 -62 -5
-19 -3 -28 5 -28 6 0 9 -4 6 -9 -3 -4 3 -19 14 -31 11 -13 20 -20 20 -16 0 4
7 1 15 -8 11 -10 15 -32 14 -68 -2 -63 12 -95 45 -104 13 -3 33 -22 45 -44 21
-38 55 -57 68 -38 8 14 33 -19 33 -42 0 -16 39 -40 63 -40 7 1 30 9 52 20 22
11 46 19 53 20 6 0 12 5 12 10 0 6 6 10 14 10 8 0 16 4 18 9 3 8 32 47 76 102
24 29 52 39 48 17 -2 -7 -8 -33 -15 -58 -7 -25 -15 -53 -17 -63 -2 -10 -6 -27
-9 -37 -8 -26 -18 -101 -16 -134 1 -46 24 -62 103 -70 38 -4 89 -27 82 -37 -3
-5 0 -9 6 -9 6 0 9 -4 6 -8 -8 -13 35 -16 112 -9 23 2 42 -1 42 -5 0 -5 4 -7
9 -3 5 3 12 1 16 -5 4 -6 15 -4 31 6 13 9 24 13 24 10 0 -4 10 0 23 9 13 8 26
13 29 9 9 -8 98 -12 98 -4 0 15 55 44 85 45 42 2 76 15 70 26 -4 5 3 9 14 9
12 0 21 6 21 14 0 12 19 19 85 33 11 2 21 8 23 13 12 34 43 57 82 58 23 1 49
6 59 12 10 5 21 6 25 3 3 -3 18 -8 33 -9 14 -2 29 -7 32 -12 6 -9 46 -26 46
-20 1 2 12 -4 25 -13 24 -15 84 -17 138 -5 13 3 34 -1 46 -9 13 -8 26 -12 29
-8 4 3 7 2 7 -3 0 -9 24 -10 180 -3 25 1 53 6 64 11 10 6 45 12 78 14 32 2 64
7 70 10 16 10 58 14 58 5 0 -3 17 -6 38 -5 20 0 49 -3 64 -7 49 -13 149 72
170 146 6 22 17 46 24 54 13 15 1 69 -33 147 -9 22 -18 45 -19 51 -4 25 -29
73 -37 73 -5 0 -6 4 -3 9 3 5 -1 14 -9 21 -8 7 -15 18 -15 25 0 8 -4 15 -8 17
-12 4 -72 95 -72 107 0 6 -4 11 -10 11 -5 0 -10 6 -10 14 0 8 -10 22 -22 30
-12 9 -18 16 -13 16 5 0 -17 25 -48 55 -31 30 -57 60 -57 66 0 7 -3 9 -6 6 -4
-4 -19 2 -34 13 -14 10 -33 20 -41 22 -8 2 -20 11 -27 21 -7 9 -21 17 -31 17
-9 0 -26 8 -37 18 -11 9 -26 18 -33 20 -8 2 -25 12 -39 23 -14 10 -31 19 -38
19 -7 0 -30 9 -51 21 -20 11 -46 22 -57 23 -12 2 -32 8 -46 14 -27 11 -128 42
-157 47 -10 2 -18 4 -18 5 0 1 -9 3 -19 5 -10 2 -23 10 -27 17 -6 8 -9 9 -9 1
0 -7 -23 -5 -72 9 -40 11 -89 21 -108 23 -49 4 -133 16 -147 20 -10 3 -9 11 1
36 12 29 12 35 -4 52 -21 21 -20 49 1 53 8 1 28 5 44 8 41 9 117 18 135 17 27
-1 104 0 148 3 24 1 45 0 47 -4 2 -4 19 -8 37 -9 18 -1 47 -3 63 -4 17 -1 32
2 35 7 5 9 -13 13 -85 17 -22 1 -50 6 -61 10 -12 4 -24 5 -28 2 -3 -3 -60 -7
-128 -9 -157 -4 -178 -6 -178 -15 0 -12 -43 -1 -52 13 -4 7 -8 9 -8 4 0 -5 -7
-3 -15 4 -8 6 -19 9 -25 5 -6 -3 -10 4 -11 17 0 21 -6 57 -13 83 -2 6 -12 30
-23 55 -11 25 -23 63 -26 85 -4 22 -23 71 -42 108 -19 38 -35 74 -35 82 0 7
-6 15 -14 18 -16 6 -15 -5 4 -48 29 -67 45 -100 53 -106 5 -3 9 -10 8 -15 0
-5 2 -18 4 -29 3 -11 7 -29 9 -40 1 -11 8 -31 13 -45 6 -14 18 -42 27 -64 21
-50 21 -102 0 -110 -9 -4 -22 -2 -29 4 -13 11 -17 8 -53 -35 -10 -12 -15 -13
-26 -3 -8 7 -12 16 -10 19 2 4 -3 12 -11 19 -8 7 -29 42 -47 77 -17 36 -38 67
-45 70 -7 3 -10 9 -7 14 3 5 -2 9 -11 9 -9 0 -19 9 -22 20 -3 11 -9 20 -13 20
-4 0 -12 11 -18 24 -6 13 -20 27 -31 31 -12 3 -21 12 -21 18 0 7 -18 29 -40
50 -22 20 -40 42 -40 48 0 5 -5 7 -10 4 -5 -3 -10 1 -10 9 0 9 -6 16 -13 16
-7 0 -19 9 -27 20 -8 11 -19 20 -25 20 -5 0 -21 14 -34 30 -13 16 -26 28 -30
27 -7 -4 -52 41 -48 48 3 7 -53 38 -153 86 -84 41 -156 66 -208 74 -15 2 -55
11 -90 20 -35 8 -68 13 -73 9 -5 -3 -9 -1 -9 3 0 5 -53 10 -117 12 -65 1 -147
3 -183 4 -36 1 -88 -1 -116 -6z"/>
</g>
</svg>
